<mxfile host="app.diagrams.net" modified="2023-05-20T10:55:49.103Z" agent="Mozilla/5.0 (Windows NT 10.0; Win64; x64) AppleWebKit/537.36 (KHTML, like Gecko) Chrome/113.0.0.0 Safari/537.36 Edg/113.0.1774.42" etag="6FsQ5bkpKTDmluV6XE1g" version="21.1.4" type="device">
  <diagram name="PÃ¡gina-1" id="Vz8CQtLNku1jlkEFa8RE">
    <mxGraphModel dx="1434" dy="756" grid="1" gridSize="10" guides="1" tooltips="1" connect="1" arrows="1" fold="1" page="1" pageScale="1" pageWidth="827" pageHeight="1169" math="0" shadow="0">
      <root>
        <mxCell id="0" />
        <mxCell id="1" parent="0" />
        <mxCell id="cE50TyRI_QNoL0gGZuBZ-16" style="edgeStyle=orthogonalEdgeStyle;rounded=0;orthogonalLoop=1;jettySize=auto;html=1;entryX=0.631;entryY=-0.033;entryDx=0;entryDy=0;entryPerimeter=0;" edge="1" parent="1" source="cE50TyRI_QNoL0gGZuBZ-1" target="cE50TyRI_QNoL0gGZuBZ-7">
          <mxGeometry relative="1" as="geometry">
            <Array as="points">
              <mxPoint x="744" y="235" />
              <mxPoint x="744" y="165" />
              <mxPoint x="350" y="165" />
            </Array>
          </mxGeometry>
        </mxCell>
        <mxCell id="cE50TyRI_QNoL0gGZuBZ-1" value="HotelAvailabilitySearchEvent" style="shape=cylinder3;whiteSpace=wrap;html=1;boundedLbl=1;backgroundOutline=1;size=15;rotation=90;direction=west;horizontal=0;" vertex="1" parent="1">
          <mxGeometry x="564" y="130" width="60" height="210" as="geometry" />
        </mxCell>
        <mxCell id="cE50TyRI_QNoL0gGZuBZ-11" style="edgeStyle=orthogonalEdgeStyle;rounded=0;orthogonalLoop=1;jettySize=auto;html=1;exitX=0.5;exitY=0;exitDx=0;exitDy=0;exitPerimeter=0;entryX=0;entryY=0.5;entryDx=0;entryDy=0;" edge="1" parent="1" source="cE50TyRI_QNoL0gGZuBZ-2" target="cE50TyRI_QNoL0gGZuBZ-7">
          <mxGeometry relative="1" as="geometry" />
        </mxCell>
        <mxCell id="cE50TyRI_QNoL0gGZuBZ-14" value="Rest" style="edgeLabel;html=1;align=center;verticalAlign=middle;resizable=0;points=[];" vertex="1" connectable="0" parent="cE50TyRI_QNoL0gGZuBZ-11">
          <mxGeometry x="0.1909" y="2" relative="1" as="geometry">
            <mxPoint as="offset" />
          </mxGeometry>
        </mxCell>
        <mxCell id="cE50TyRI_QNoL0gGZuBZ-12" style="edgeStyle=orthogonalEdgeStyle;rounded=0;orthogonalLoop=1;jettySize=auto;html=1;entryX=0;entryY=0.5;entryDx=0;entryDy=0;" edge="1" parent="1" source="cE50TyRI_QNoL0gGZuBZ-2" target="cE50TyRI_QNoL0gGZuBZ-8">
          <mxGeometry relative="1" as="geometry" />
        </mxCell>
        <mxCell id="cE50TyRI_QNoL0gGZuBZ-13" value="Rest" style="edgeLabel;html=1;align=center;verticalAlign=middle;resizable=0;points=[];" vertex="1" connectable="0" parent="cE50TyRI_QNoL0gGZuBZ-12">
          <mxGeometry x="-0.1704" y="1" relative="1" as="geometry">
            <mxPoint as="offset" />
          </mxGeometry>
        </mxCell>
        <mxCell id="cE50TyRI_QNoL0gGZuBZ-2" value="" style="shape=umlActor;verticalLabelPosition=bottom;verticalAlign=top;html=1;outlineConnect=0;" vertex="1" parent="1">
          <mxGeometry x="84" y="305" width="30" height="60" as="geometry" />
        </mxCell>
        <mxCell id="cE50TyRI_QNoL0gGZuBZ-19" style="edgeStyle=orthogonalEdgeStyle;rounded=0;orthogonalLoop=1;jettySize=auto;html=1;entryX=1;entryY=0.5;entryDx=0;entryDy=0;" edge="1" parent="1" source="cE50TyRI_QNoL0gGZuBZ-5" target="cE50TyRI_QNoL0gGZuBZ-8">
          <mxGeometry relative="1" as="geometry" />
        </mxCell>
        <mxCell id="cE50TyRI_QNoL0gGZuBZ-5" value="HotelAvailabilitySearch" style="shape=cylinder3;whiteSpace=wrap;html=1;boundedLbl=1;backgroundOutline=1;size=15;" vertex="1" parent="1">
          <mxGeometry x="574" y="405" width="130" height="80" as="geometry" />
        </mxCell>
        <mxCell id="cE50TyRI_QNoL0gGZuBZ-6" value="PostgreSQL" style="text;html=1;align=center;verticalAlign=middle;resizable=0;points=[];autosize=1;strokeColor=none;fillColor=none;" vertex="1" parent="1">
          <mxGeometry x="634" y="385" width="90" height="30" as="geometry" />
        </mxCell>
        <mxCell id="cE50TyRI_QNoL0gGZuBZ-15" style="edgeStyle=orthogonalEdgeStyle;rounded=0;orthogonalLoop=1;jettySize=auto;html=1;entryX=0.5;entryY=0;entryDx=0;entryDy=0;entryPerimeter=0;" edge="1" parent="1" source="cE50TyRI_QNoL0gGZuBZ-7" target="cE50TyRI_QNoL0gGZuBZ-1">
          <mxGeometry relative="1" as="geometry" />
        </mxCell>
        <mxCell id="cE50TyRI_QNoL0gGZuBZ-18" style="edgeStyle=orthogonalEdgeStyle;rounded=0;orthogonalLoop=1;jettySize=auto;html=1;" edge="1" parent="1" source="cE50TyRI_QNoL0gGZuBZ-7" target="cE50TyRI_QNoL0gGZuBZ-5">
          <mxGeometry relative="1" as="geometry">
            <Array as="points">
              <mxPoint x="329" y="305" />
              <mxPoint x="634" y="305" />
            </Array>
          </mxGeometry>
        </mxCell>
        <mxCell id="cE50TyRI_QNoL0gGZuBZ-7" value="HotelSearchCommandSvc" style="rounded=0;whiteSpace=wrap;html=1;" vertex="1" parent="1">
          <mxGeometry x="249" y="205" width="160" height="60" as="geometry" />
        </mxCell>
        <mxCell id="cE50TyRI_QNoL0gGZuBZ-8" value="HotelSearchQuerySvc" style="rounded=0;whiteSpace=wrap;html=1;" vertex="1" parent="1">
          <mxGeometry x="249" y="415" width="150" height="60" as="geometry" />
        </mxCell>
        <mxCell id="cE50TyRI_QNoL0gGZuBZ-17" value="Kafka" style="text;html=1;align=center;verticalAlign=middle;resizable=0;points=[];autosize=1;strokeColor=none;fillColor=none;" vertex="1" parent="1">
          <mxGeometry x="559" y="185" width="50" height="30" as="geometry" />
        </mxCell>
      </root>
    </mxGraphModel>
  </diagram>
</mxfile>
